<svg width="536" height="371" viewBox="0 0 536 371" fill="none" xmlns="http://www.w3.org/2000/svg">
<g clip-path="url(#clip0_1_2)">
<path d="M279.124 41L426.349 296C431.737 305.333 425.001 317 414.224 317H119.776C108.998 317 102.263 305.333 107.651 296L254.876 41C260.264 31.6667 273.736 31.6667 279.124 41Z" fill="#F4F2F2" stroke="#F4A126" stroke-width="20"/>
<path d="M284.858 137.091L281.534 227.091H252.386L249.062 137.091H284.858ZM266.96 270.045C262.017 270.045 257.777 268.32 254.24 264.868C250.746 261.374 249.02 257.134 249.062 252.148C249.02 247.29 250.746 243.135 254.24 239.683C257.777 236.232 262.017 234.506 266.96 234.506C271.648 234.506 275.781 236.232 279.361 239.683C282.983 243.135 284.815 247.29 284.858 252.148C284.815 255.472 283.942 258.497 282.237 261.224C280.575 263.909 278.402 266.061 275.717 267.68C273.033 269.257 270.114 270.045 266.96 270.045Z" fill="#F4A126"/>
</g>
<defs>
<clipPath id="clip0_1_2">
<rect width="536" height="371" fill="white"/>
</clipPath>
</defs>
</svg>
