<svg width="200" height="200" viewBox="0 0 200 200" fill="none" xmlns="http://www.w3.org/2000/svg">
<g clip-path="url(#clip0_3_14608)">
<path d="M0.806152 100.272C0.806152 45.4127 45.2784 0.94043 100.138 0.94043V0.94043C154.997 0.94043 199.47 45.4127 199.47 100.272V100.272C199.47 155.132 154.997 199.604 100.138 199.604V199.604C45.2784 199.604 0.806152 155.132 0.806152 100.272V100.272Z" fill="#FBFCFF"/>
<g clip-path="url(#clip1_3_14608)">
<path d="M518.98 -173.529L-152.128 -39.3701L-51.5095 463.961L619.599 329.803L518.98 -173.529Z" fill="#FBFCFF"/>
<path d="M94.7139 89.1395C102.807 98.3163 110.918 92.6933 103.295 84.4694C97.207 77.8697 88.366 81.9403 94.7139 89.1395Z" fill="#EBF2FF"/>
<path d="M131.502 92.3237C134.688 91.1518 138.639 82.8708 133.069 82.8211C128.058 82.7759 125.632 94.4975 131.502 92.3237Z" fill="#EBF2FF"/>
<path d="M115.957 106.504C111.734 107.721 110.127 111.788 115.688 111.56C120.489 111.368 120.95 105.064 115.957 106.504Z" fill="#EBF2FF"/>
<path d="M200.422 252.517C183.636 250.941 166.231 256.746 153.717 268.042C146.406 274.645 145.824 270.806 137.105 266.059C128.775 261.512 120.378 257.096 111.949 252.755C101.418 247.323 44.8923 212.094 35.8038 232.499C29.6061 246.417 64.7938 247.758 72.6141 250.452C80.412 253.151 87.9235 256.628 95.2112 260.498C100.392 263.255 113.357 268.177 116.721 273.251C120.094 278.37 117.372 294.896 117.166 301.196C117.058 304.846 113.464 323.292 116.466 325.972C120.738 329.771 121.272 307.656 121.389 305.097C121.81 295.451 121.762 285.783 121.235 276.164C128.532 280.894 138.736 290.509 147.053 292.778C156.824 295.455 160.466 286.793 154.49 278.194C164.095 281.903 177.463 283.139 186.613 277.472C190.022 275.325 206.94 253.122 200.422 252.517Z" fill="#EBF2FF"/>
<path d="M215.152 152.328C210.396 150.533 191.012 141.776 186.998 146.719C183.749 150.719 194.964 169.578 197.563 173.269C213.493 195.931 232.519 158.906 215.152 152.328Z" fill="#EBF2FF"/>
<path d="M24.4317 180.613C27.2601 171.021 29.9185 161.626 36.7643 154.092C44.0129 146.129 54.12 141.526 62.9611 135.711C66.885 133.112 68.5361 130.898 72.6522 131.354C76.719 131.798 84.5656 139.279 88.4712 141.36C91.3344 142.881 114.128 153.795 112.863 147.813C113.896 149.84 117.551 147.993 119.149 147.371C124.12 145.47 124.03 143.045 124.657 139.895C127.566 125.123 111.772 143.053 112.693 147.312C109.987 141.921 97.8984 136.381 93.0891 132.922C90.1812 130.828 86.1862 128.765 83.6362 126.134C82.2002 124.653 83.2652 122.998 81.1939 121.714C74.3535 117.521 60.7603 132.033 54.0221 136.149C45.445 141.423 38.8946 146.71 31.5343 153.416C31.3956 153.537 29.2169 152.53 28.1251 153.702C25.3063 156.708 23.6056 162.748 22.0125 166.417C14.5305 183.569 10.7887 200.928 9.16748 218.654C7.46567 237.489 1.16014 256.221 -0.756441 275.262C-1.71923 284.993 -3.42913 294.361 -5.18827 303.949C-7.68597 317.523 -1.53786 307.895 0.0823662 300.755C4.39699 281.839 4.47483 262.096 8.17653 243.023C12.3303 221.907 18.3631 201.228 24.4317 180.613ZM76.5181 126.487C76.5181 126.487 76.545 126.505 76.5718 126.523C76.5494 126.527 76.5271 126.532 76.5181 126.487Z" fill="#EBF2FF"/>
<path d="M137.371 41.5054C134.946 41.1293 134.44 44.4177 136.091 45.5766C120.455 40.7925 106.846 30.6711 91.6602 43.2685C84.9532 48.8201 79.9594 57.9376 77.9946 66.3798C76.5713 72.5269 78.8212 77.7303 85.2197 70.8678C90.9092 85.9456 92.2668 63.5267 90.6925 57.8625C103.707 60.2393 116.247 63.2694 129.607 63.9954C143.574 64.7393 154.417 44.1466 137.371 41.5054ZM90.7149 57.6254C90.697 57.6522 90.6746 57.6567 90.6791 57.6791C90.6612 57.4732 90.7954 57.5627 90.7149 57.6254Z" fill="#EBF2FF"/>
<path d="M161.154 210.977C158.824 203.859 153.388 202.27 148.825 197.482C144.553 192.986 145.676 193.133 145.488 185.796C145.377 181.631 145.082 177.479 144.626 173.336C144.045 167.985 141.272 159.35 139.692 169.018C138.51 176.257 141.323 186.489 141.103 194.001C136.482 192.18 125.315 189.852 122.644 185.105C119.795 180.045 120.991 168.22 119.421 162.113C119.076 160.739 114.783 147.058 112.652 153.509C110.952 158.618 117.532 173.727 117.992 179.637C114.011 174.268 108.969 172.903 103.676 169.704C97.5605 165.994 93.2705 160.594 86.2555 158.088C84.202 157.358 75.9298 154.848 74.6678 158.543C73.4998 162.01 87.087 164.924 89.8696 167.671C84.1113 170.521 97.215 176.718 99.094 177.506C106.928 180.732 108.667 186.992 115.986 191.833C123.762 196.979 132.687 201.011 140.901 205.441C141.384 205.647 163.462 217.983 161.154 210.977Z" fill="#EBF2FF"/>
<path d="M83.5835 74.6624C80.3131 73.5481 76.4519 75.2971 74.7202 78.2721C72.9661 81.2516 73.1895 85.1619 74.8401 88.182C76.2402 90.7636 78.826 92.8756 81.7788 92.9832" stroke="#003188" stroke-width="1.5969" stroke-miterlimit="10" stroke-linecap="round" stroke-linejoin="round"/>
<path d="M78.5415 81.0898C79.8613 81.4076 81.0826 82.1638 81.9013 83.2332" stroke="#003188" stroke-width="1.5969" stroke-miterlimit="10" stroke-linecap="round" stroke-linejoin="round"/>
<path d="M85.6943 71.6115C86.1952 73.8844 86.7005 76.1796 87.179 78.4569C87.3042 79.0832 87.595 79.8394 88.2348 79.8976C88.7582 79.9558 89.1699 79.4547 89.4518 79.0029C91.2819 76.0547 91.8012 72.4845 91.8776 69.0261C91.9539 65.5678 91.65 62.0691 91.9859 58.6286" stroke="#003188" stroke-width="1.5969" stroke-miterlimit="10" stroke-linecap="round" stroke-linejoin="round"/>
<path d="M95.0384 59.3436C95.6154 60.8335 95.915 62.4486 95.9328 64.0503" stroke="#003188" stroke-width="1.5969" stroke-miterlimit="10" stroke-linecap="round" stroke-linejoin="round"/>
<path d="M96.6704 56.5752C102.115 61.2331 110.123 62.6565 116.839 60.1741" stroke="#003188" stroke-width="1.5969" stroke-miterlimit="10" stroke-linecap="round" stroke-linejoin="round"/>
<path d="M117.819 61.8165C123.201 64.1837 129.214 64.9359 135.088 64.6456C137.808 64.5206 140.591 64.1271 142.922 62.7538C147.557 59.9893 149.182 53.5693 147.335 48.518C145.465 43.4712 140.736 39.8334 135.6 38.2313C135.658 39.22 135.721 40.2312 135.757 41.2244" stroke="#003188" stroke-width="1.5969" stroke-miterlimit="10" stroke-linecap="round" stroke-linejoin="round"/>
<path d="M139.613 46.4328C133.412 43.3452 127.346 39.8818 120.809 37.5593C114.273 35.2367 107.128 34.0594 100.386 35.7097C92.8245 37.5701 86.3591 42.9339 82.3722 49.64C78.3853 56.3461 76.7829 64.2739 76.8985 72.0675" stroke="#003188" stroke-width="1.5969" stroke-miterlimit="10" stroke-linecap="round" stroke-linejoin="round"/>
<path d="M99.4683 50.2002C100.309 51.614 101.982 52.3032 103.544 52.782C107.284 53.9188 111.19 54.4873 115.082 54.4071C115.664 54.4072 116.286 54.3759 116.831 54.546C117.35 54.6982 117.811 55.0248 118.263 55.3067C121.466 57.365 125.381 58.3273 129.175 57.9876" stroke="#003188" stroke-width="1.5969" stroke-miterlimit="10" stroke-linecap="round" stroke-linejoin="round"/>
<path d="M88.6144 57.4638C88.6681 58.3138 88.744 59.1594 88.7932 59.9871" stroke="#003188" stroke-width="1.5969" stroke-miterlimit="10" stroke-linecap="round" stroke-linejoin="round"/>
<path d="M103.806 70.1534C107.287 68.7131 111.403 68.9372 114.714 70.7181" stroke="#003188" stroke-width="1.5969" stroke-miterlimit="10" stroke-linecap="round" stroke-linejoin="round"/>
<path d="M130.883 70.9526C128.248 70.4558 125.546 70.3213 122.87 70.5537C122.414 70.5984 121.935 70.6476 121.631 70.9876C121.381 71.2471 121.295 71.6363 121.255 72.0166C120.512 77.8416 123.607 83.5507 123.459 89.4429C123.45 89.9798 123.365 90.6017 122.945 90.9416C122.622 91.1922 122.184 91.21 121.795 91.2413C120.113 91.3217 118.43 91.402 116.748 91.4824" stroke="#003188" stroke-width="1.5969" stroke-miterlimit="10" stroke-linecap="round" stroke-linejoin="round"/>
<path d="M120.763 99.1251C117.43 98.6282 114.07 98.1134 110.737 97.6165C110.545 97.5851 110.335 97.5806 110.218 97.6969C110.084 97.8401 110.124 98.0414 110.182 98.2159C110.755 100.032 112.312 101.419 114.115 102.059C115.913 102.677 117.895 102.583 119.721 102.055" stroke="#003188" stroke-width="1.5969" stroke-miterlimit="10" stroke-linecap="round" stroke-linejoin="round"/>
<path d="M135.988 67.3968C135.638 78.4475 135.27 89.6413 132.303 100.285C131.345 103.756 130.096 107.17 128.087 110.154C126.078 113.138 123.255 115.656 119.859 116.824C114.978 118.474 109.497 117.127 105.095 114.424C100.693 111.722 97.2171 107.834 93.7949 103.981" stroke="#003188" stroke-width="1.5969" stroke-miterlimit="10" stroke-linecap="round" stroke-linejoin="round"/>
<path d="M82.6838 95.2915C83.2067 102.329 82.9684 114.753 80.7218 122.135" stroke="#003188" stroke-width="1.5969" stroke-miterlimit="10" stroke-linecap="round" stroke-linejoin="round"/>
<path d="M122.727 115.459C120.811 123.333 120.815 127.543 120.291 135.627" stroke="#003188" stroke-width="1.5969" stroke-miterlimit="10" stroke-linecap="round" stroke-linejoin="round"/>
<path d="M83.3188 124.779C93.1564 132.444 103.016 140.104 112.854 147.769C114.962 144.347 117.042 140.907 119.15 137.484" stroke="#003188" stroke-width="1.5969" stroke-miterlimit="10" stroke-linecap="round" stroke-linejoin="round"/>
<path d="M72.6313 132.521C84.5583 139.699 97.3489 145.494 110.614 149.705" stroke="#003188" stroke-width="1.5969" stroke-miterlimit="10" stroke-linecap="round" stroke-linejoin="round"/>
<path d="M114.392 149.533C118.683 146.675 122.629 143.257 126.043 139.387" stroke="#003188" stroke-width="1.5969" stroke-miterlimit="10" stroke-linecap="round" stroke-linejoin="round"/>
<path d="M78.506 119.205C64.4926 128.822 50.1796 137.639 36.278 147.351C34.7657 148.398 33.4771 149.4 32.2333 150.626C31.6605 151.485 30.7702 151.918 30.1929 152.755C29.8171 153.319 29.3741 153.663 28.7746 154.272C25.3427 158.168 23.6869 162.221 21.633 166.843C19.1941 173.263 17.6724 179.267 15.4795 185.637C11.9619 197.717 9.0483 209.21 6.2957 221.393C1.82878 242.339 -1.08112 262.463 -2.71161 284.099C-3.19559 292.85 -3.27686 301.055 -6.32438 309.319C-6.60187 310.374 -7.17909 311.211 -7.18365 312.235" stroke="#003188" stroke-width="1.5969" stroke-miterlimit="10" stroke-linecap="round" stroke-linejoin="round"/>
<path d="M121.003 133.135C130.138 139.73 142.043 142.841 148.923 151.771C154.524 159.073 155.579 168.773 156.433 177.931C157.058 184.786 157.711 191.658 158.337 198.512" stroke="#003188" stroke-width="1.5969" stroke-miterlimit="10" stroke-linecap="round" stroke-linejoin="round"/>
<path d="M141.907 167.646C144.018 178.321 143.999 189.399 141.828 200.069" stroke="#003188" stroke-width="1.5969" stroke-miterlimit="10" stroke-linecap="round" stroke-linejoin="round"/>
<path d="M113.591 153.439C116.302 162.691 117.889 172.261 118.277 181.885" stroke="#003188" stroke-width="1.5969" stroke-miterlimit="10" stroke-linecap="round" stroke-linejoin="round"/>
<path d="M222.821 156.937C217.933 184.273 212.369 211.487 206.148 238.554C204.38 246.236 202.532 253.98 198.979 260.995C195.43 268.032 189.971 274.358 182.728 277.458C175.591 280.513 167.355 280.159 159.906 278.042C152.457 275.925 145.563 272.162 138.731 268.479C114.327 255.328 89.5647 242.83 64.507 230.949C61.268 229.41 57.935 227.866 54.3872 227.575C50.128 227.217 45.4928 228.585 41.7752 226.513" stroke="#003188" stroke-width="1.5969" stroke-miterlimit="10" stroke-linecap="round" stroke-linejoin="round"/>
<path d="M171.133 0.557617C174.019 1.37662 176.735 2.85775 178.976 4.87572" stroke="#003188" stroke-width="1.5969" stroke-miterlimit="10" stroke-linecap="round" stroke-linejoin="round"/>
<path d="M171.501 14.8615C173.787 14.3114 176.172 14.1372 178.516 14.3432" stroke="#003188" stroke-width="1.5969" stroke-miterlimit="10" stroke-linecap="round" stroke-linejoin="round"/>
<path d="M108.518 75.9131C108.187 77.0494 107.967 78.2798 107.855 79.4654C107.828 79.6801 107.828 79.9128 107.931 79.962C108.007 79.9933 108.115 79.8322 108.195 79.6533C108.67 78.5348 108.889 77.0719 108.75 75.9131" stroke="#003188" stroke-width="1.5969" stroke-miterlimit="10" stroke-linecap="round" stroke-linejoin="round"/>
<path d="M128.037 77.5473C127.768 78.5316 127.58 79.5695 127.482 80.5896C127.468 80.7551 127.464 80.9654 127.54 80.9967C127.616 81.028 127.679 80.8759 127.746 80.7462C128.135 79.7843 128.305 78.5406 128.225 77.5563" stroke="#003188" stroke-width="1.5969" stroke-miterlimit="10" stroke-linecap="round" stroke-linejoin="round"/>
<path d="M121.066 116.583C112.713 118.439 103.689 115.194 98.3929 108.483C98.1424 108.161 97.7755 108.187 97.5115 108.38C96.5497 106.827 95.588 105.275 94.5681 103.78C94.076 103.064 93.0469 103.968 93.539 104.684C97.6142 110.639 100.817 117.699 107.192 121.659C110.033 123.418 113.388 124.259 116.735 124.009C118.064 123.906 119.938 123.857 120.681 122.569C121.025 121.965 121.115 121.249 121.236 120.573C121.46 119.482 121.661 118.395 121.88 117.281C121.957 116.847 121.464 116.48 121.066 116.583Z" fill="#003188"/>
<path d="M210.351 17.423C205.081 13.8702 199.005 11.5253 192.706 10.621C192.442 10.5807 192.133 10.5493 191.941 10.7506C191.744 10.9296 191.757 11.2293 191.762 11.4844C192.168 18.6383 195.241 25.6314 200.265 30.7456" stroke="#FF8500" stroke-width="1.5969" stroke-miterlimit="10" stroke-linecap="round" stroke-linejoin="round"/>
<path d="M197.699 17.6729C200.924 17.5166 204.204 19.0246 206.181 21.5839" stroke="#FF8500" stroke-width="1.5969" stroke-miterlimit="10" stroke-linecap="round" stroke-linejoin="round"/>
<path d="M200.352 18.9576C200.536 21.1543 201.377 23.2661 202.723 24.9976C203.341 24.2461 203.954 23.4721 204.571 22.7206" stroke="#FF8500" stroke-width="1.5969" stroke-miterlimit="10" stroke-linecap="round" stroke-linejoin="round"/>
<path d="M214.02 34.4873C211.604 34.7377 209.188 34.988 206.776 35.2607C202.069 35.8061 197.184 36.5036 193.206 39.0668C192.607 39.4426 192.025 39.9078 191.734 40.5476C191.443 41.1873 191.595 42.0642 192.199 42.4088C190.034 42.9813 187.998 44.0861 186.316 45.5624" stroke="#FF8500" stroke-width="1.5969" stroke-miterlimit="10" stroke-linecap="round" stroke-linejoin="round"/>
<path d="M210.775 38.9747C206.037 39.7124 201.487 41.6224 197.67 44.5257C196.538 45.3801 195.343 46.7356 195.862 48.051C193.572 48.4624 191.415 49.6612 189.858 51.4149" stroke="#FF8500" stroke-width="1.5969" stroke-miterlimit="10" stroke-linecap="round" stroke-linejoin="round"/>
<path d="M198.918 47.3936C198.041 50.919 198.17 54.7085 199.329 58.1759C199.454 58.5697 199.731 59.026 200.138 58.9679C200.429 58.9098 200.577 58.6011 200.689 58.3461C201.329 56.6594 201.642 54.852 201.606 53.0445C202.268 57.7512 203.037 62.7621 206.151 66.3505" stroke="#FF8500" stroke-width="1.5969" stroke-miterlimit="10" stroke-linecap="round" stroke-linejoin="round"/>
</g>
</g>
<path d="M100.138 198.604C45.8307 198.604 1.80615 154.579 1.80615 100.272H-0.193848C-0.193848 155.684 44.7262 200.604 100.138 200.604V198.604ZM198.47 100.272C198.47 154.579 154.445 198.604 100.138 198.604V200.604C155.55 200.604 200.47 155.684 200.47 100.272H198.47ZM100.138 1.94043C154.445 1.94043 198.47 45.965 198.47 100.272H200.47C200.47 44.8604 155.55 -0.0595703 100.138 -0.0595703V1.94043ZM100.138 -0.0595703C44.7262 -0.0595703 -0.193848 44.8604 -0.193848 100.272H1.80615C1.80615 45.965 45.8307 1.94043 100.138 1.94043V-0.0595703Z" fill="#003188" fill-opacity="0.1"/>
<defs>
<clipPath id="clip0_3_14608">
<path d="M0.806152 100.272C0.806152 45.4127 45.2784 0.94043 100.138 0.94043V0.94043C154.997 0.94043 199.47 45.4127 199.47 100.272V100.272C199.47 155.132 154.997 199.604 100.138 199.604V199.604C45.2784 199.604 0.806152 155.132 0.806152 100.272V100.272Z" fill="white"/>
</clipPath>
<clipPath id="clip1_3_14608">
<rect width="684.387" height="513.29" fill="white" transform="translate(-152.128 -39.3701) rotate(-11.3048)"/>
</clipPath>
</defs>
</svg>
