<svg width="199" height="200" viewBox="0 0 199 200" fill="none" xmlns="http://www.w3.org/2000/svg">
<g clip-path="url(#clip0_3_14613)">
<path d="M0.0957031 100.272C0.0957031 45.4127 44.568 0.94043 99.4274 0.94043V0.94043C154.287 0.94043 198.759 45.4127 198.759 100.272V100.272C198.759 155.132 154.287 199.604 99.4274 199.604V199.604C44.568 199.604 0.0957031 155.132 0.0957031 100.272V100.272Z" fill="#FBFCFF"/>
<g clip-path="url(#clip1_3_14613)">
<path d="M426.22 -57.0029H-223.4V430.213H426.22V-57.0029Z" fill="#FBFCFF"/>
<path d="M104.288 98.3209C104.786 98.3209 105.37 98.256 106.02 98.1044C109.506 97.2815 113.555 92.9291 114.573 89.5727C115.916 85.112 111.715 82.7733 107.817 84.4624C103.573 86.3029 97.9862 98.256 104.288 98.3209Z" fill="#EBF2FF"/>
<path d="M87.702 109.645C89.7158 111.313 93.6352 111.919 94.4147 109.169C95.3242 105.943 88.9579 104.037 87.0957 106.202C86.0346 107.415 86.5543 108.714 87.702 109.645Z" fill="#EBF2FF"/>
<path d="M71.2227 89.4647C71.7424 92.4529 75.0121 95.3762 78.152 94.2935C88.979 90.6123 66.8919 74.7183 71.331 88.2087C71.201 88.5985 71.1577 89.0316 71.2227 89.4647Z" fill="#EBF2FF"/>
<path d="M134.714 175.82C144.307 174.932 154.419 171.619 158.079 161.745C158.663 160.164 159.898 156.721 158.793 155.184C157.234 153.04 154.961 155.378 153.423 156.331C144.523 161.788 134.887 167.548 124.58 168.869C110.96 170.623 96.6464 166.509 83.3941 163.152C79.0633 162.048 74.7541 160.77 70.5099 159.341C66.7855 158.085 63.1259 156.656 59.7912 154.577C56.0018 152.217 53.1217 148.947 50.6748 145.244C48.7693 142.343 47.2102 135.565 45.1098 132.707C44.2003 131.472 38.397 130.758 36.8812 133.551C36.1234 134.937 37.7691 139.593 38.1372 141.087C41.5152 154.079 51.043 165.491 63.4074 171.056C69.3839 173.741 75.9234 174.499 82.0732 176.643C88.656 178.938 95.0439 182.511 102.19 182.576C107.712 182.619 112.887 180.497 118.019 178.765C123.606 176.859 128.932 176.34 134.714 175.82Z" fill="#EBF2FF"/>
<path d="M-4.13249 161.441C-4.86872 159.059 -8.63652 160.077 -7.90028 162.481C-7.1857 164.776 -6.60104 167.093 -6.103 169.453L-6.44946 205.118C-6.99081 207.456 -7.64043 209.795 -8.39832 212.09C-9.17786 214.472 -5.43173 215.511 -4.63053 213.13C-0.364685 200.18 0.653067 186.279 -1.49068 172.831C-2.09699 168.955 -2.98482 165.144 -4.13249 161.441Z" fill="#EBF2FF"/>
<path d="M-1.1447 162.936C1.71363 175.171 2.16837 187.968 0.132896 200.376C-0.0403366 201.415 0.392728 202.477 1.49708 202.78C2.42821 203.04 3.72744 202.455 3.90067 201.415C6.04442 188.293 5.63302 174.868 2.62311 161.897C2.03845 159.45 -1.7077 160.489 -1.1447 162.936Z" fill="#EBF2FF"/>
<path d="M233.456 281.644C233.261 280.388 233.022 279.154 232.784 278.049C231.269 270.86 228.735 263.844 226.764 256.785C226.353 255.334 224.512 255.074 223.538 255.854C223.603 255.399 223.668 254.923 223.733 254.468C225.075 245.308 226.418 236.17 227.739 227.011C229.038 218.133 230.662 197.453 231.528 190.74C210.546 193.837 186.575 196.175 165.44 197.626C159.464 198.038 153.487 198.384 147.511 198.666C145.562 198.752 145.129 201.177 146.233 202.152C143.981 220.536 141.751 238.92 139.499 257.305C138.373 266.594 137.225 275.884 136.099 285.173C135.818 287.469 135.536 289.742 135.255 292.038C135.016 294.073 134.627 296.542 136.359 297.798C140.148 300.504 148.03 308.646 154.592 307.78C153.422 307.932 153.098 310.552 153.357 311.375C154.029 313.389 155.826 313.302 157.537 313.085C162.344 312.457 167.238 310.855 171.958 309.707C181.573 307.39 191.144 304.965 200.671 302.41C208.077 300.418 215.461 298.361 222.845 296.217C225.877 295.329 229.883 294.809 231.897 292.103C234.04 289.266 233.997 285.26 233.456 281.644Z" fill="#EBF2FF"/>
<path d="M150.78 85.9138C147.9 82.1027 143.807 79.3093 140.321 76.0396C132.439 68.6772 133.5 56.6375 127.913 47.911C124.73 42.9306 120.161 38.9029 114.574 36.8674C109.529 35.0268 103.899 34.9835 98.9183 36.9324C99.3731 36.7592 97.6841 35.1784 97.5108 35.0701C96.6447 34.5721 95.6269 34.5721 94.6742 34.6587C88.4811 35.2217 81.6168 39.3576 77.0045 43.342C72.154 47.5212 68.3862 52.9347 66.1775 58.9329C64.7266 62.8523 64.2503 66.5984 64.2503 70.7343C64.2503 74.2856 64.4451 78.638 61.76 81.3881C59.2482 83.9433 55.5453 84.9177 53.0768 87.4945C49.5905 91.1324 50.6515 96.3294 52.0807 100.639C53.0984 103.713 54.5276 107.524 52.4055 110.448C51.4311 111.79 53.0551 113.912 54.6142 113.306C57.5808 112.158 61.0671 115.168 62.6479 117.94C65.4629 122.921 70.4433 121.405 76.5497 123.245C78.91 123.96 78.1954 119.651 77.6974 117.68C76.3765 112.375 73.6914 107.33 72.0241 102.046C70.1618 96.0912 70.335 89.9414 70.8547 83.77C71.1362 80.4786 71.4394 77.1872 71.7642 73.8958C72.089 70.5827 72.0024 66.4901 74.2977 63.8267C76.4198 61.3581 79.9277 60.6868 82.6128 59.0628C87.6582 55.9879 92.2922 52.0036 95.3454 47.0665C94.6092 48.2574 96.4498 51.9819 97.0344 53.0646C98.0955 55.0568 99.5896 56.8108 101.279 58.3049C104.31 60.99 108.1 62.7007 111.781 63.5668C114.163 66.8149 113.708 74.2639 114.336 78.5947C116.566 94.2722 113.816 110.794 106.476 124.934C111.802 125.93 120.551 128.637 124.08 127.121C128.368 125.281 131.334 120.69 136.423 120.798C138.892 120.863 141.598 121.946 143.937 120.712C146.297 119.456 147.9 117.031 150.238 115.623C154.764 112.873 155.457 106.615 155.327 101.829C155.175 96.4376 154.136 90.3529 150.78 85.9138Z" fill="#FFF8DC"/>
<path d="M74.2769 63.5879C72.3497 71.8164 71.2887 80.2182 71.0721 88.6632C70.8989 95.6142 71.3753 102.782 74.3852 109.04C75.4895 111.357 76.962 113.522 78.8676 115.233C82.3322 118.373 87.1178 119.845 91.795 119.672C96.4723 119.499 100.998 117.766 104.874 115.168" stroke="#003188" stroke-width="1.73232" stroke-miterlimit="10" stroke-linecap="round" stroke-linejoin="round"/>
<path d="M77.5684 68.2864C79.409 67.8317 81.2712 67.377 83.1768 67.5069C85.0823 67.6368 87.0095 68.3514 88.1355 69.8672C89.2182 71.318 89.4347 73.2669 89.1099 75.0425C88.7851 76.8181 87.9839 78.4638 87.1827 80.0879C86.2733 81.9501 85.3638 83.7907 84.4543 85.653C84.1728 86.216 83.8913 86.8223 83.9996 87.4286C84.2594 89.0527 86.6847 89.2475 87.5292 90.6767" stroke="#003188" stroke-width="1.73232" stroke-miterlimit="10" stroke-linecap="round" stroke-linejoin="round"/>
<path d="M100.975 77.9014C100.65 78.7242 100.217 80.2183 100.174 81.1062C100.174 81.2794 100.39 81.3444 100.477 81.1928C101.04 80.3699 101.3 78.8975 101.17 77.9014" stroke="#003188" stroke-width="1.73232" stroke-miterlimit="10" stroke-linecap="round" stroke-linejoin="round"/>
<path d="M81.0531 75.0859C80.7283 75.9088 80.2953 77.4029 80.252 78.2907C80.252 78.464 80.4685 78.5289 80.5551 78.3774C81.1181 77.5545 81.378 76.082 81.248 75.0859" stroke="#003188" stroke-width="1.73232" stroke-miterlimit="10" stroke-linecap="round" stroke-linejoin="round"/>
<path d="M96.6445 71.0586C98.8099 70.5173 101.04 70.1491 103.249 70.3873C105.458 70.6255 107.666 71.5134 109.182 73.1591" stroke="#003188" stroke-width="1.73232" stroke-miterlimit="10" stroke-linecap="round" stroke-linejoin="round"/>
<path d="M83.7402 97.3467C87.6163 96.827 96.6677 95.6144 97.2956 95.7659C96.1913 101.504 88.6124 105.835 84.6064 99.707" stroke="#003188" stroke-width="1.73232" stroke-miterlimit="10" stroke-linecap="round" stroke-linejoin="round"/>
<path d="M79.105 115.644C79.8412 123.417 79.9711 131.234 79.5381 139.03" stroke="#003188" stroke-width="1.73232" stroke-miterlimit="10" stroke-linecap="round" stroke-linejoin="round"/>
<path d="M117.629 128.204C117.932 133.206 118.647 138.187 119.816 143.059" stroke="#003188" stroke-width="1.73232" stroke-miterlimit="10" stroke-linecap="round" stroke-linejoin="round"/>
<path d="M80.5352 126.299C80.9467 126.429 81.3581 126.515 81.7695 126.58C85.6239 127.143 89.6516 126.754 93.2895 125.368C96.949 123.982 100.219 121.578 102.536 118.438C103.055 117.745 103.51 117.031 103.792 116.208C102.233 117.377 100.349 117.962 98.4864 118.525C96.949 118.98 95.4115 119.434 93.8525 119.716C89.0453 120.539 83.9566 119.608 79.7773 117.139C80.0805 120.192 80.3187 123.246 80.4486 126.32" fill="#003188"/>
<path d="M80.5352 126.299C80.9467 126.429 81.3581 126.515 81.7695 126.58C85.6239 127.143 89.6516 126.754 93.2895 125.368C96.949 123.982 100.219 121.578 102.536 118.438C103.055 117.745 103.51 117.031 103.792 116.208C102.233 117.377 100.349 117.962 98.4864 118.525C96.949 118.98 95.4115 119.434 93.8525 119.716C89.0453 120.539 83.9566 119.608 79.7773 117.139C80.0805 120.192 80.3187 123.246 80.4486 126.32" stroke="#003188" stroke-width="1.73232" stroke-miterlimit="10" stroke-linecap="round" stroke-linejoin="round"/>
<path d="M114.316 142.82C128.478 146.068 142.596 149.49 156.693 153.063C161.327 154.232 165.982 155.445 170.53 156.939C172.977 157.74 175.424 158.649 177.611 160.014C182.504 163.067 185.731 168.091 188.784 172.963" stroke="#003188" stroke-width="1.73232" stroke-miterlimit="10" stroke-linecap="round" stroke-linejoin="round"/>
<path d="M79.1046 139.051C63.2972 134.093 46.3638 129.134 30.4481 133.724C14.8355 138.228 3.31557 151.026 -9.09218 161.507C-15.5884 166.985 -22.5177 171.944 -28.6241 177.877C-32.2836 181.428 -35.7483 185.564 -36.766 190.566C-37.0692 192.06 -36.5278 194.247 -35.012 194.031C-34.2542 193.923 -33.7778 193.208 -33.4313 192.537C-31.1793 188.141 -31.4175 182.922 -31.9155 178.029C-34.6006 150.853 -42.9807 124.283 -43.1973 96.9775" stroke="#003188" stroke-width="1.73232" stroke-miterlimit="10" stroke-linecap="round" stroke-linejoin="round"/>
<path d="M-67.3621 97.7148C-69.0945 129.979 -70.8268 162.525 -65.6515 194.422C-63.5943 207.111 -58.9387 221.446 -46.964 226.058C-37.0898 229.869 -26.0246 225.452 -16.7783 220.298C-3.82922 213.066 8.21041 204.253 19.0158 194.075C22.6103 190.697 26.3132 186.496 25.9451 181.581C22.069 183.313 20.7481 188.077 20.0985 192.278C16.2874 217.375 21.0296 242.862 24.6458 267.98C28.2404 293.099 30.6007 319.344 22.3505 343.358" stroke="#003188" stroke-width="1.73232" stroke-miterlimit="10" stroke-linecap="round" stroke-linejoin="round"/>
<path d="M-2.68133 167.439C0.653392 185.434 -0.0611825 204.165 -4.7168 221.878" stroke="#003188" stroke-width="1.73232" stroke-miterlimit="10" stroke-linecap="round" stroke-linejoin="round"/>
<path d="M93.1147 134.181C93.2447 136.931 93.3746 139.681 93.5045 142.409" stroke="#003188" stroke-width="1.73232" stroke-miterlimit="10" stroke-linecap="round" stroke-linejoin="round"/>
<path d="M45.2603 132.621C48.2052 139.832 51.7565 147.021 57.4948 152.283C68.4517 162.33 84.6273 163.218 99.2004 166.098C106.238 167.484 113.232 169.455 120.4 169.281C132.742 168.957 143.916 162.352 154.461 155.921" stroke="#003188" stroke-width="1.73232" stroke-miterlimit="10" stroke-linecap="round" stroke-linejoin="round"/>
<path d="M57.3862 159.624C65.7447 163.457 74.6878 166.055 83.8041 167.311C91.2964 168.329 99.4817 168.675 105.22 173.569" stroke="#003188" stroke-width="1.73232" stroke-miterlimit="10" stroke-linecap="round" stroke-linejoin="round"/>
<path d="M147.64 192.494L135.188 295.091" stroke="#003188" stroke-width="1.73232" stroke-miterlimit="10" stroke-linecap="round" stroke-linejoin="round"/>
<path d="M124.362 180.542L109.854 300.289" stroke="#003188" stroke-width="1.73232" stroke-miterlimit="10" stroke-linecap="round" stroke-linejoin="round"/>
<path d="M232.2 184.872L147.533 192.451" stroke="#003188" stroke-width="1.73232" stroke-miterlimit="10" stroke-linecap="round" stroke-linejoin="round"/>
<path d="M210.979 182.273L151.646 187.687" stroke="#003188" stroke-width="1.73232" stroke-miterlimit="10" stroke-linecap="round" stroke-linejoin="round"/>
<path d="M205.782 178.159L146.45 183.573" stroke="#003188" stroke-width="1.73232" stroke-miterlimit="10" stroke-linecap="round" stroke-linejoin="round"/>
<path d="M205.781 173.179L124.362 180.541" stroke="#003188" stroke-width="1.73232" stroke-miterlimit="10" stroke-linecap="round" stroke-linejoin="round"/>
<path d="M124.581 180.758L147.967 192.668" stroke="#003188" stroke-width="1.73232" stroke-miterlimit="10" stroke-linecap="round" stroke-linejoin="round"/>
<path d="M174.708 129.871C174.405 129.871 174.232 130.326 174.448 130.521C174.665 130.716 175.098 130.499 175.055 130.196" stroke="#003188" stroke-width="1.73232" stroke-miterlimit="10" stroke-linecap="round" stroke-linejoin="round"/>
<path d="M143.007 167.247C145.519 166.099 148.031 164.973 150.542 163.825" stroke="#003188" stroke-width="1.73232" stroke-miterlimit="10" stroke-linecap="round" stroke-linejoin="round"/>
<path d="M44.437 143.903C44.9134 144.531 45.4114 145.159 45.8878 145.787" stroke="#003188" stroke-width="1.73232" stroke-miterlimit="10" stroke-linecap="round" stroke-linejoin="round"/>
<path d="M97.859 36.6729C97.9023 43.5372 94.8923 50.3149 89.9769 55.1437C85.0831 59.9509 78.392 62.8309 71.5493 63.4589" stroke="#FFC701" stroke-width="1.73232" stroke-miterlimit="10" stroke-linecap="round" stroke-linejoin="round"/>
<path d="M95.1724 47.8682C96.6232 55.8802 103.682 62.5712 111.759 63.5673" stroke="#FFC701" stroke-width="1.73232" stroke-miterlimit="10" stroke-linecap="round" stroke-linejoin="round"/>
<path d="M96.1901 35.6552C87.875 35.5903 79.5815 38.9466 73.6916 44.8149C67.8017 50.6615 64.3587 58.9333 64.3587 67.2484C64.3587 70.843 64.9217 74.6758 63.1894 77.8156C61.3704 81.0854 57.6026 82.6445 54.5494 84.7882C50.5001 87.6465 47.2953 92.627 48.6162 97.4125C49.3308 99.9893 51.2363 102.09 52.0375 104.645C52.9687 107.525 52.3407 110.838 50.4568 113.198" stroke="#FFC701" stroke-width="1.73232" stroke-miterlimit="10" stroke-linecap="round" stroke-linejoin="round"/>
<path d="M54.0742 114.692C56.3695 113.198 59.7259 113.61 61.6098 115.602C62.6275 116.684 63.2122 118.114 64.0134 119.37C64.8146 120.625 65.9839 121.838 67.4781 121.968C68.4741 122.055 69.4269 121.643 70.423 121.513C72.5234 121.232 74.7538 122.314 75.8365 124.133" stroke="#FFC701" stroke-width="1.73232" stroke-miterlimit="10" stroke-linecap="round" stroke-linejoin="round"/>
<path d="M62.7135 85.6104C59.5521 87.0395 57.5382 90.6341 57.928 94.0771C58.2311 96.6756 59.7469 98.9709 60.4615 101.504C61.1761 104.038 60.6997 107.329 58.2961 108.369" stroke="#FFC701" stroke-width="1.73232" stroke-miterlimit="10" stroke-linecap="round" stroke-linejoin="round"/>
<path d="M65.0744 97.4775C63.472 99.578 64.4248 102.588 65.4426 105.013C66.4603 107.46 67.4564 110.405 65.9406 112.57" stroke="#FFC701" stroke-width="1.73232" stroke-miterlimit="10" stroke-linecap="round" stroke-linejoin="round"/>
<path d="M90.4086 44.6201C89.8023 47.1536 88.4598 49.4923 86.7275 51.4411C83.9774 54.5593 80.2529 56.7897 76.2036 57.7425" stroke="#FFC701" stroke-width="1.73232" stroke-miterlimit="10" stroke-linecap="round" stroke-linejoin="round"/>
<path d="M106.824 49.4268C118.431 73.3761 117.651 102.955 104.767 126.255" stroke="#FFC701" stroke-width="1.73232" stroke-miterlimit="10" stroke-linecap="round" stroke-linejoin="round"/>
<path d="M108.317 127.078C109.963 125.389 112.778 125.713 114.965 126.58C117.174 127.446 119.361 128.723 121.7 128.507C125.532 128.182 127.893 124.176 131.292 122.357C133.912 120.95 137.074 120.906 139.997 121.448C141.665 121.751 143.57 122.162 144.869 121.079C145.454 120.603 145.8 119.888 146.169 119.239C146.84 118.07 147.706 116.965 148.897 116.337C150.088 115.709 151.669 115.688 152.686 116.554" stroke="#FFC701" stroke-width="1.73232" stroke-miterlimit="10" stroke-linecap="round" stroke-linejoin="round"/>
<path d="M131.897 62.7871C131.811 68.0274 133.824 73.2893 137.376 77.1221C140.949 80.9981 145.994 83.51 148.831 87.9491C152.49 93.6874 151.386 101.656 147.228 107.07" stroke="#FFC701" stroke-width="1.73232" stroke-miterlimit="10" stroke-linecap="round" stroke-linejoin="round"/>
<path d="M142.204 91.8252C144.045 95.1599 144.218 99.2309 143.287 102.934C142.377 106.637 140.472 110.015 138.35 113.176" stroke="#FFC701" stroke-width="1.73232" stroke-miterlimit="10" stroke-linecap="round" stroke-linejoin="round"/>
<path d="M123.174 66.8809C122.329 70.6487 122.567 74.633 123.888 78.2709C124.776 80.7178 126.119 82.9915 127.006 85.4384C127.894 87.8853 128.284 90.6786 127.201 93.0606C125.534 96.7634 120.575 99.2103 121.181 103.238C121.571 105.858 124.3 107.547 125.036 110.081C125.837 112.917 123.975 115.754 122.199 118.093" stroke="#FFC701" stroke-width="1.73232" stroke-miterlimit="10" stroke-linecap="round" stroke-linejoin="round"/>
<path d="M-11.9717 59.7773C-6.81802 60.5136 -1.68604 61.5746 3.35935 62.8955" stroke="#FFC701" stroke-width="1.73232" stroke-miterlimit="10" stroke-linecap="round" stroke-linejoin="round"/>
<path d="M100.804 34.8313C111.263 31.345 123.346 35.2211 131.033 43.1248C138.72 51.0285 142.25 62.3536 142.12 73.3755" stroke="#FFC701" stroke-width="1.73232" stroke-miterlimit="10" stroke-linecap="round" stroke-linejoin="round"/>
<path d="M144.415 73.2471C147.36 77.5346 151.886 80.4579 155.026 84.6154C161.305 92.9089 160.721 105.187 155.112 113.957" stroke="#FFC701" stroke-width="1.73232" stroke-miterlimit="10" stroke-linecap="round" stroke-linejoin="round"/>
</g>
</g>
<path d="M99.4274 198.279C45.2995 198.279 1.42013 154.4 1.42013 100.272H-1.22872C-1.22872 155.863 43.8365 200.928 99.4274 200.928V198.279ZM197.435 100.272C197.435 154.4 153.555 198.279 99.4274 198.279V200.928C155.018 200.928 200.084 155.863 200.084 100.272H197.435ZM99.4274 2.26485C153.555 2.26485 197.435 46.1442 197.435 100.272H200.084C200.084 44.6813 155.018 -0.383993 99.4274 -0.383993V2.26485ZM99.4274 -0.383993C43.8365 -0.383993 -1.22872 44.6813 -1.22872 100.272H1.42013C1.42013 46.1442 45.2995 2.26485 99.4274 2.26485V-0.383993Z" fill="#003188" fill-opacity="0.1"/>
<defs>
<clipPath id="clip0_3_14613">
<path d="M0.0957031 100.272C0.0957031 45.4127 44.568 0.94043 99.4274 0.94043V0.94043C154.287 0.94043 198.759 45.4127 198.759 100.272V100.272C198.759 155.132 154.287 199.604 99.4274 199.604V199.604C44.568 199.604 0.0957031 155.132 0.0957031 100.272V100.272Z" fill="white"/>
</clipPath>
<clipPath id="clip1_3_14613">
<rect width="649.621" height="487.215" fill="white" transform="translate(-223.4 -57.0029)"/>
</clipPath>
</defs>
</svg>
