<svg width="200" height="200" viewBox="0 0 200 200" fill="none" xmlns="http://www.w3.org/2000/svg">
<g clip-path="url(#clip0_3_14617)">
<path d="M0.649902 100.272C0.649902 45.4127 45.1222 0.94043 99.9816 0.94043V0.94043C154.841 0.94043 199.313 45.4127 199.313 100.272V100.272C199.313 155.132 154.841 199.604 99.9816 199.604V199.604C45.1222 199.604 0.649902 155.132 0.649902 100.272V100.272Z" fill="#003188"/>
<g clip-path="url(#clip1_3_14617)">
<path d="M316.854 -134.736H-434.102V428.481H316.854V-134.736Z" fill="#FBFCFF"/>
<path d="M-0.00260922 88.099C2.97618 88.099 5.72971 77.4354 3.02627 76.5092C-2.40564 74.6569 -4.30809 88.099 -0.00260922 88.099Z" fill="#EBF2FF"/>
<path d="M46.4826 197.363C49.7367 200.617 73.517 178.464 77.1967 175.56C81.7775 171.956 86.3583 168.351 90.9392 164.771C93.8429 162.494 107.911 154.433 108.587 151.054C110.714 140.315 95.2447 155.359 92.1407 157.788C80.601 166.774 69.1364 175.836 57.7219 184.947C58.6481 178.113 61.9523 168.201 60.951 161.317C60.0248 154.984 59.2739 154.208 56.2951 160.366C52.5903 168.026 56.3201 179.265 52.6654 186.95C51.6892 188.977 43.8793 194.735 46.4826 197.363Z" fill="#EBF2FF"/>
<path d="M133.319 186.924C123.656 181.267 113.568 194.859 107.911 200.567C98.7245 209.854 88.6867 218.139 78.9493 226.825C73.7677 231.456 62.5284 240.192 68.7864 248.353C73.9179 255.036 81.8781 239.917 86.584 235.912C90.8645 255.261 106.309 268.979 114.119 286.676C116.522 292.133 120.177 304.574 121.529 293.009C122.355 285.975 112.192 273.334 108.637 267.902C103.906 260.668 98.5993 253.659 94.9697 245.749C93.9434 243.496 89.8131 235.036 90.7393 232.432C91.4402 230.455 99.7007 224.072 101.278 222.394C108.111 215.11 114.595 209.253 122.855 203.52C125.984 201.343 141.904 191.931 133.319 186.924Z" fill="#EBF2FF"/>
<path d="M187.035 250.805C177.899 235.435 175.671 215.535 170.69 198.513C166.71 184.896 163.581 170.302 157.448 157.386C150.514 142.767 135.595 134.357 122.804 125.746C121.452 124.844 114.969 118.111 112.39 118.061C108.786 118.011 100.225 126.497 96.7205 128.324C75.2432 139.563 97.1461 135.608 108.11 131.828C109.737 131.278 114.969 128.149 116.496 128.324C118.598 128.599 127.685 138.487 129.337 139.989C135.67 145.746 142.028 151.553 147.285 158.337C152.717 165.321 156.346 172.881 159.475 181.116C160.827 184.646 162.78 188.601 163.455 192.355C163.981 193.857 164.507 195.359 165.007 196.836C166.059 198.313 165.558 199.114 163.506 199.214C162.93 202.819 159.15 208.401 161.628 213.983C164.957 221.467 168.737 218.113 169.438 210.679C172.117 219.84 173.468 229.377 176.347 238.489C179.901 249.854 188.162 258.565 192.042 269.654C193.419 273.584 195.071 297.564 198.775 280.442C200.928 270.505 191.716 258.665 187.035 250.805Z" fill="#EBF2FF"/>
<path d="M41.9763 183.369C47.0077 184.746 47.7337 165.546 48.6348 161.742C50.362 154.482 52.5147 148.299 57.9467 142.993C60.1244 140.865 65.6064 135.558 68.6103 134.507C72.9908 133.005 65.3561 134.357 74.0422 134.357C76.9208 134.357 84.7558 138.913 83.4542 133.055C80.175 118.236 56.5449 137.361 52.8402 141.341C48.76 145.796 34.7421 181.367 41.9763 183.369Z" fill="#EBF2FF"/>
<path d="M66.257 46.9457C71.0631 45.4939 90.4879 31.426 83.0033 26.4696C78.8981 23.7662 70.2621 30.6249 67.9341 33.4285C66.4322 35.2058 59.6987 48.9232 66.257 46.9457Z" fill="#EBF2FF"/>
<path d="M87.31 32.5775C91.6405 44.7179 126.385 66.2453 123.381 41.9144C121.128 23.4909 81.828 17.1328 87.31 32.5775Z" fill="#EBF2FF"/>
<path d="M118.875 66.6466C114.644 74.757 116.847 86.0714 124.407 74.031C129.163 66.4464 123.331 56.6839 118.875 66.6466ZM124.232 67.0221C124.232 67.0221 124.232 66.9971 124.257 66.9971C124.257 66.9971 124.257 67.0221 124.232 67.0221ZM124.232 66.972C124.232 66.972 124.232 66.9971 124.232 66.972C124.182 67.0471 124.106 66.922 124.232 66.972Z" fill="#EBF2FF"/>
<path d="M121.679 88.3723C117.323 100.688 137.248 116.308 147.436 121.364C154.896 125.069 162.455 126.596 169.765 130.601C176.398 134.256 183.057 139.137 185.26 130.576C185.41 127.798 185.084 125.044 184.258 122.366C185.485 121.99 186.686 121.59 187.913 121.214C189.89 117.61 193.595 116.033 192.694 111.051C191.167 102.39 179.127 104.918 172.618 104.218C162.756 103.116 153.044 100.663 143.857 96.9082C140.427 95.5064 123.206 83.9918 121.679 88.3723Z" fill="#EBF2FF"/>
<path d="M98.3236 69.7757C94.9694 69.4753 88.4611 75.3828 91.3648 78.4868C97.072 84.5445 103.956 70.2763 98.3236 69.7757Z" fill="#EBF2FF"/>
<path d="M63.1033 79.4881C62.878 76.8347 62.7278 74.1813 62.6777 71.5029C62.7528 71.5029 62.8029 71.5029 62.878 71.528C69.8619 72.5543 70.3375 84.0189 63.1033 79.4881Z" fill="#EBF2FF"/>
<path d="M81.4762 91.2012C76.1695 90.7255 76.8454 96.8584 82.3774 95.9572C86.758 95.2313 84.0796 91.4264 81.4762 91.2012Z" fill="#EBF2FF"/>
<path d="M-3.4082 109.551C-1.8312 112.805 -0.154048 116.835 0.922322 120.239" stroke="#003188" stroke-width="1.75223" stroke-miterlimit="10" stroke-linecap="round" stroke-linejoin="round"/>
<path d="M8.59424 138.02C14.5541 140.668 18.3447 143.844 21.2484 148.726C27.9819 159.94 34.315 171.354 40.2726 182.994C43.9022 190.103 47.4568 197.463 48.5832 205.373C48.7334 206.499 48.7834 207.826 47.9323 208.577C46.5556 209.803 44.2276 208.101 44.2026 206.274C44.2026 204.422 45.5543 202.895 46.856 201.618C50.3855 198.139 54.1403 194.909 57.895 191.655C74.8416 177.062 91.7882 162.468 108.735 147.875" stroke="#003188" stroke-width="1.75223" stroke-miterlimit="10" stroke-linecap="round" stroke-linejoin="round"/>
<path d="M-19.7285 152.73C-10.8672 173.257 -2.00596 193.783 6.85532 214.309C10.51 222.795 14.2898 231.456 20.3725 238.415C26.4553 245.373 35.3416 250.53 44.5784 249.854C54.2407 249.128 62.2258 242.37 69.41 235.911C83.578 223.145 97.671 210.304 111.213 196.862C123.979 184.196 127.709 184.196 135.694 189.002" stroke="#003188" stroke-width="1.75223" stroke-miterlimit="10" stroke-linecap="round" stroke-linejoin="round"/>
<path d="M125.23 194.184C129.611 193.984 134.017 194.735 138.072 196.412" stroke="#003188" stroke-width="1.75223" stroke-miterlimit="10" stroke-linecap="round" stroke-linejoin="round"/>
<path d="M129.637 197.838C131.79 198.339 133.893 199.089 135.87 200.066" stroke="#003188" stroke-width="1.75223" stroke-miterlimit="10" stroke-linecap="round" stroke-linejoin="round"/>
<path d="M84.2544 136.21C82.2769 144.971 82.0766 154.158 83.6786 162.994" stroke="#003188" stroke-width="1.75223" stroke-miterlimit="10" stroke-linecap="round" stroke-linejoin="round"/>
<path d="M84.8052 135.383C94.9931 130.702 104.58 124.72 113.241 117.636" stroke="#003188" stroke-width="1.75223" stroke-miterlimit="10" stroke-linecap="round" stroke-linejoin="round"/>
<path d="M75.019 126.922C78.098 129.6 81.1769 132.279 84.2558 134.957" stroke="#003188" stroke-width="1.75223" stroke-miterlimit="10" stroke-linecap="round" stroke-linejoin="round"/>
<path d="M74.2907 126.798C68.258 130.002 62.3505 133.481 56.6432 137.211C53.6394 139.189 50.6105 141.291 48.5329 144.22C46.6054 146.974 45.6542 150.278 44.7531 153.532C42.7756 160.791 40.9733 168.1 39.3462 175.435" stroke="#003188" stroke-width="1.75223" stroke-miterlimit="10" stroke-linecap="round" stroke-linejoin="round"/>
<path d="M57.9462 161.867C56.945 169.151 55.6183 176.386 53.9912 183.545" stroke="#003188" stroke-width="1.75223" stroke-miterlimit="10" stroke-linecap="round" stroke-linejoin="round"/>
<path d="M84.4551 135.91C95.6944 137.387 107.459 134.208 116.421 127.274" stroke="#003188" stroke-width="1.75223" stroke-miterlimit="10" stroke-linecap="round" stroke-linejoin="round"/>
<path d="M67.7095 131.104C72.3153 134.358 78.2229 135.059 83.855 135.484" stroke="#003188" stroke-width="1.75223" stroke-miterlimit="10" stroke-linecap="round" stroke-linejoin="round"/>
<path d="M113.868 117.485C116.547 122.216 121.803 124.72 126.609 127.248C139.651 134.182 151.816 143.869 158.4 157.111C161.354 163.043 163.106 169.477 164.808 175.86C168.763 190.453 172.693 205.047 176.648 219.64C180.603 234.259 184.683 249.178 193.269 261.669C195.873 265.424 199.002 269.454 198.526 273.985C198.125 277.764 195.247 281.544 196.774 285.049" stroke="#003188" stroke-width="1.75223" stroke-miterlimit="10" stroke-linecap="round" stroke-linejoin="round"/>
<path d="M103.279 86.2966C102.928 87.0977 102.528 87.8486 102.077 88.5996C99.1737 93.4307 94.5178 97.1354 89.4613 99.7388C86.3324 101.366 82.8279 102.617 79.3484 102.642C78.1719 102.642 77.0205 102.517 75.869 102.217C71.6136 101.065 68.2343 97.611 66.2818 93.631C64.3293 89.6759 63.6284 85.2203 63.2029 80.8147C63.1528 80.3641 63.1278 79.9135 63.0777 79.4629C62.8524 76.8096 62.7023 74.1562 62.6522 71.4778C62.527 64.8944 62.9526 58.311 63.9288 51.8027" stroke="#003188" stroke-width="1.75223" stroke-miterlimit="10" stroke-linecap="round" stroke-linejoin="round"/>
<path d="M75.6444 102.518C75.7696 110.578 75.4942 118.638 74.8184 126.673" stroke="#003188" stroke-width="1.75223" stroke-miterlimit="10" stroke-linecap="round" stroke-linejoin="round"/>
<path d="M86.4087 119.062C86.4087 120.389 86.4087 121.716 86.4087 123.043" stroke="#003188" stroke-width="1.75223" stroke-miterlimit="10" stroke-linecap="round" stroke-linejoin="round"/>
<path d="M112.84 96.5088C112.114 102.867 112.064 109.325 112.715 115.683" stroke="#003188" stroke-width="1.75223" stroke-miterlimit="10" stroke-linecap="round" stroke-linejoin="round"/>
<path d="M109.987 79.3604C109.312 84.2416 110.363 89.3481 112.941 93.5284" stroke="#003188" stroke-width="1.75223" stroke-miterlimit="10" stroke-linecap="round" stroke-linejoin="round"/>
<path d="M106.433 65.2448C107.334 63.042 110.287 62.1409 112.44 63.1171C114.593 64.0933 115.845 66.5965 115.694 68.9745C115.544 71.3526 114.217 73.5304 112.415 75.0823C110.613 76.6343 108.41 77.6356 106.157 78.3865" stroke="#003188" stroke-width="1.75223" stroke-miterlimit="10" stroke-linecap="round" stroke-linejoin="round"/>
<path d="M108.234 72.2521C108.86 71.7014 109.511 71.1757 110.137 70.625" stroke="#003188" stroke-width="1.75223" stroke-miterlimit="10" stroke-linecap="round" stroke-linejoin="round"/>
<path d="M105.607 58.6855C104.18 60.6631 103.479 63.1412 103.629 65.5443" stroke="#003188" stroke-width="1.75223" stroke-miterlimit="10" stroke-linecap="round" stroke-linejoin="round"/>
<path d="M84.4053 36.958C84.4303 39.311 85.8822 41.3636 87.4091 43.1409C94.393 51.2512 104.656 56.5079 115.345 57.409" stroke="#003188" stroke-width="1.75223" stroke-miterlimit="10" stroke-linecap="round" stroke-linejoin="round"/>
<path d="M84.0032 36.5068C79.5725 43.7911 72.2132 49.2481 63.9526 51.4008" stroke="#003188" stroke-width="1.75223" stroke-miterlimit="10" stroke-linecap="round" stroke-linejoin="round"/>
<path d="M84.4297 36.7823C84.5048 32.2265 85.2808 27.6957 86.7326 23.3652" stroke="#003188" stroke-width="1.75223" stroke-miterlimit="10" stroke-linecap="round" stroke-linejoin="round"/>
<path d="M86.0311 22.8154C79.9984 21.4637 73.8406 24.8179 69.3348 29.0483C65.0043 33.1285 61.4999 38.21 59.7226 43.8672C57.9454 49.5494 57.9203 55.8574 60.0981 61.3895" stroke="#003188" stroke-width="1.75223" stroke-miterlimit="10" stroke-linecap="round" stroke-linejoin="round"/>
<path d="M81.401 29.374C77.6962 34.9812 72.1892 39.3618 65.9062 41.7147" stroke="#003188" stroke-width="1.75223" stroke-miterlimit="10" stroke-linecap="round" stroke-linejoin="round"/>
<path d="M73.8673 40.1631C72.5156 41.2645 71.1388 42.3659 69.7871 43.4673" stroke="#003188" stroke-width="1.75223" stroke-miterlimit="10" stroke-linecap="round" stroke-linejoin="round"/>
<path d="M86.7817 22.615C93.8658 19.8115 101.976 19.6613 109.16 22.2396C116.344 24.8178 122.502 30.0745 126.207 36.758C127.959 39.9621 129.161 43.4416 130.037 46.9711C131.514 52.9787 132.039 59.3368 130.487 65.3194C127.984 74.9066 120.525 82.3661 116.57 91.4527" stroke="#003188" stroke-width="1.75223" stroke-miterlimit="10" stroke-linecap="round" stroke-linejoin="round"/>
<path d="M90.3857 33.7793C90.7612 36.2074 92.2631 38.285 93.9152 40.1124C100.423 47.3966 109.81 52.0275 119.548 52.8285" stroke="#003188" stroke-width="1.75223" stroke-miterlimit="10" stroke-linecap="round" stroke-linejoin="round"/>
<path d="M110.687 46.9199C112.865 48.2216 115.343 49.0476 117.871 49.2479" stroke="#003188" stroke-width="1.75223" stroke-miterlimit="10" stroke-linecap="round" stroke-linejoin="round"/>
<path d="M124.23 86.7959C139.374 99.5622 159.049 106.896 178.875 107.172C184.256 107.247 189.763 106.821 194.97 108.248C192.317 112.228 191.165 117.185 191.841 121.916C188.612 120.739 185.358 119.563 182.129 118.386" stroke="#003188" stroke-width="1.75223" stroke-miterlimit="10" stroke-linecap="round" stroke-linejoin="round"/>
<path d="M168.862 117.962C172.817 120.24 177.173 121.792 181.679 122.468" stroke="#003188" stroke-width="1.75223" stroke-miterlimit="10" stroke-linecap="round" stroke-linejoin="round"/>
<path d="M115.595 96.084C121.277 109.551 128.787 122.217 137.898 133.632" stroke="#003188" stroke-width="1.75223" stroke-miterlimit="10" stroke-linecap="round" stroke-linejoin="round"/>
<path d="M146.258 129.2C152.441 136.159 159.475 142.367 167.16 147.599" stroke="#003188" stroke-width="1.75223" stroke-miterlimit="10" stroke-linecap="round" stroke-linejoin="round"/>
<path d="M143.455 118.537C150.89 128.525 160.377 136.961 171.165 143.194" stroke="#003188" stroke-width="1.75223" stroke-miterlimit="10" stroke-linecap="round" stroke-linejoin="round"/>
<path d="M152.315 110.477C159.174 120.464 168.786 128.5 179.8 133.506C183.43 135.158 187.235 136.485 190.714 138.412C189.738 139.664 187.786 139.138 186.234 139.413C183.906 139.864 182.454 142.793 183.48 144.92" stroke="#003188" stroke-width="1.75223" stroke-miterlimit="10" stroke-linecap="round" stroke-linejoin="round"/>
<path d="M68.6089 55.3319C70.3611 54.9564 72.1884 54.6059 73.9407 54.9063C75.7179 55.2067 77.4701 56.3331 77.9708 58.0603C78.3463 59.362 77.9458 60.7638 77.5453 62.0654C76.4438 65.4698 75.1171 68.774 73.5902 72.0031C72.9143 73.4049 72.2135 75.082 73.0145 76.4087C73.5902 77.3849 74.7667 77.8105 75.4426 78.7116" stroke="#003188" stroke-width="1.75223" stroke-miterlimit="10" stroke-linecap="round" stroke-linejoin="round"/>
<path d="M85.1313 58.2856C88.9863 56.9089 93.3418 56.9339 97.1967 58.3607" stroke="#003188" stroke-width="1.75223" stroke-miterlimit="10" stroke-linecap="round" stroke-linejoin="round"/>
<path d="M76.4199 83.7426C79.3236 83.8427 82.2523 83.3421 84.9808 82.3408C85.3563 82.1906 85.907 82.1155 86.0572 82.491C86.1323 82.7163 86.0322 82.9416 85.882 83.1419C84.2048 85.7452 81.1509 87.3472 78.072 87.2721" stroke="#003188" stroke-width="1.75223" stroke-miterlimit="10" stroke-linecap="round" stroke-linejoin="round"/>
<path d="M164.431 199.915C165.508 204.17 165.583 208.651 164.631 212.932" stroke="#003188" stroke-width="1.75223" stroke-miterlimit="10" stroke-linecap="round" stroke-linejoin="round"/>
<path d="M191.116 191.155C190.565 192.106 192.317 193.208 192.943 192.307C193.143 191.406 191.466 190.98 191.191 191.856" stroke="#003188" stroke-width="1.75223" stroke-miterlimit="10" stroke-linecap="round" stroke-linejoin="round"/>
<path d="M151.488 85.7207C151.088 85.9961 151.038 86.6719 151.388 86.9973" stroke="#003188" stroke-width="1.75223" stroke-miterlimit="10" stroke-linecap="round" stroke-linejoin="round"/>
<path d="M87.7839 65.945C87.7588 67.0714 87.6587 68.2229 87.4335 69.3243C87.4084 69.4995 87.3333 69.7248 87.2582 69.7498C87.1832 69.7498 87.1331 69.5746 87.1331 69.4244C87.033 68.2979 87.2082 66.9212 87.6087 65.9199" stroke="#003188" stroke-width="1.75223" stroke-miterlimit="10" stroke-linecap="round" stroke-linejoin="round"/>
<path d="M69.4084 64.2428C69.3834 65.2691 69.2582 66.3205 69.083 67.3217C69.058 67.497 69.0079 67.6972 68.9328 67.7222C68.8827 67.7222 68.8577 67.572 68.8327 67.4218C68.7576 66.3955 68.9328 65.144 69.2582 64.2178" stroke="#003188" stroke-width="1.75223" stroke-miterlimit="10" stroke-linecap="round" stroke-linejoin="round"/>
<path d="M101.628 88.9238C96.0213 97.2845 86.4341 102.591 76.3713 102.917C75.9458 102.942 75.6454 103.242 75.6204 103.668C75.5703 104.894 75.4952 106.146 75.4451 107.372C75.4201 107.673 75.5703 107.873 75.7455 107.998C75.4702 108.449 75.6454 109.2 76.3463 109.15C88.1112 108.349 98.7248 100.489 103.005 89.5246C103.331 88.6735 102.079 88.248 101.628 88.9238Z" fill="#003188"/>
<path d="M-24.71 22.014C-21.3307 19.8362 -16.5746 20.0114 -13.3705 22.4395C-12.5945 23.0152 -11.8936 23.7412 -10.9925 24.0916C-9.04 24.8926 -6.88728 23.8913 -4.7846 23.7161C-2.35651 23.5159 0.14669 24.4921 1.79879 26.2694" stroke="#FF8500" stroke-width="1.75223" stroke-miterlimit="10" stroke-linecap="round" stroke-linejoin="round"/>
</g>
</g>
<path d="M99.9816 198.279C45.8537 198.279 1.97432 154.4 1.97432 100.272H-0.67452C-0.67452 155.863 44.3907 200.928 99.9816 200.928V198.279ZM197.989 100.272C197.989 154.4 154.11 198.279 99.9816 198.279V200.928C155.572 200.928 200.638 155.863 200.638 100.272H197.989ZM99.9816 2.26485C154.11 2.26485 197.989 46.1442 197.989 100.272H200.638C200.638 44.6813 155.572 -0.383993 99.9816 -0.383993V2.26485ZM99.9816 -0.383993C44.3907 -0.383993 -0.67452 44.6813 -0.67452 100.272H1.97432C1.97432 46.1442 45.8537 2.26485 99.9816 2.26485V-0.383993Z" fill="#003188" fill-opacity="0.1"/>
<defs>
<clipPath id="clip0_3_14617">
<path d="M0.649902 100.272C0.649902 45.4127 45.1222 0.94043 99.9816 0.94043V0.94043C154.841 0.94043 199.313 45.4127 199.313 100.272V100.272C199.313 155.132 154.841 199.604 99.9816 199.604V199.604C45.1222 199.604 0.649902 155.132 0.649902 100.272V100.272Z" fill="white"/>
</clipPath>
<clipPath id="clip1_3_14617">
<rect width="750.956" height="563.217" fill="white" transform="translate(-434.102 -134.736)"/>
</clipPath>
</defs>
</svg>
